<?xml version="1.0" encoding="UTF-8"?>
<!DOCTYPE svg PUBLIC "-//W3C//DTD SVG 1.1//EN" "http://www.w3.org/Graphics/SVG/1.1/DTD/svg11.dtd">
<!-- Creator: CorelDRAW 2021 (64-Bit) -->
<svg xmlns="http://www.w3.org/2000/svg" xml:space="preserve" width="223px" height="43px" version="1.1" style="shape-rendering:geometricPrecision; text-rendering:geometricPrecision; image-rendering:optimizeQuality; fill-rule:evenodd; clip-rule:evenodd"
viewBox="0 0 2813.08 541.99"
 xmlns:xlink="http://www.w3.org/1999/xlink"
 xmlns:xodm="http://www.corel.com/coreldraw/odm/2003">
 <defs>
  <style type="text/css">
   <![CDATA[
    .fil2 {fill:#D7D7D8}
    .fil0 {fill:#28292B}
    .fil3 {fill:#E63C24}
    .fil1 {fill:#E63C24}
   ]]>
  </style>
 </defs>
 <g id="Layer_x0020_1">
  <metadata id="CorelCorpID_0Corel-Layer"/>
  <rect class="fil0" x="1606.39" y="95.12" width="67.04" height="67.04"/>
  <rect class="fil0" x="1606.39" y="178.92" width="67.04" height="268.15"/>
  <rect class="fil0" x="1505.83" y="95.12" width="67.04" height="351.95"/>
  <path class="fil0" d="M1271.19 279.48l0 67.03c0,18.52 15.01,33.52 33.52,33.52l67.04 0c18.52,0 33.52,-15 33.53,-33.52l-0.01 -67.03c0,-18.51 -15.01,-33.52 -33.52,-33.52l-67.04 0c-18.51,0 -33.52,15.01 -33.52,33.52zm-67.03 0c0,-55.54 45.02,-100.56 100.55,-100.56l67.04 0c55.53,0 100.55,45.02 100.55,100.56l0.01 67.03c0,55.54 -45.02,100.56 -100.56,100.56l-67.04 0c-55.53,0 -100.55,-45.02 -100.55,-100.56l0 -67.03z"/>
  <path class="fil0" d="M1061.6 312.99c-33.52,0 -67.04,0 -100.56,0l0 134.08 -67.04 0 0 -351.95c55.86,0 111.79,-0.2 167.6,-0.2 60.22,0 109.04,48.82 109.04,109.04 0,60.21 -48.82,109.03 -109.04,109.03zm0 -150.83c-33.52,0 -67.04,0 -100.56,0l0 83.8c33.52,0 67.04,0 100.56,-0.11 23.08,-0.1 41.8,-18.81 41.8,-41.89 0,-23.09 -18.72,-41.8 -41.8,-41.8z"/>
  <path class="fil1" d="M2813.08 178.93l0 67.04 -67.04 0 0 201.1 -67.04 0 0 -201.1 -67.04 0 0 -67.04c67.04,0 134.08,0 201.12,0z"/>
  <path class="fil1" d="M2276.77 178.92l0 268.15 -67.04 0 0 -201.11c-33.52,0 -67.03,0 -100.55,0 -18.51,0 -33.52,15 -33.52,33.51l0.01 67.04c0,18.51 15,33.52 33.5,33.52l67.05 0 0 67.04 -67.03 0c-55.54,0 -100.56,-45.02 -100.56,-100.56l0 -66.8c-0.7,-55.42 45.52,-100.79 100.55,-100.79 55.86,0 111.73,0 167.59,0z"/>
  <path class="fil1" d="M2578.45 346.51c0,55.54 -45.02,100.56 -100.55,100.56 -55.87,0 -111.74,0 -167.61,0l0 -67.04c55.87,0 111.74,0 167.61,0 18.51,0 33.52,-15.01 33.51,-33.52 -44.7,0.01 -89.38,0 -134.08,0 -37.03,0.01 -67.05,-30.01 -67.04,-67.03 0,-55.54 45.02,-100.56 100.56,-100.56 55.86,0 111.73,0 167.6,0l0 67.04c-55.87,0 -111.74,0 -167.6,0 -18.52,0 -33.53,15 -33.52,33.51 44.7,0 89.38,0.01 134.08,0 37.03,0 67.04,30.02 67.04,67.04z"/>
  <path class="fil1" d="M1773.99 279.72l0 67.03c0,18.51 15,33.52 33.52,33.52l67.04 0c18.51,0 33.52,-15.01 33.52,-33.52l67.04 0c0,55.54 -45.03,100.56 -100.56,100.56l-67.04 0c-55.54,0 -100.56,-45.02 -100.56,-100.56l0 -67.03c0,-55.54 45.02,-100.56 100.56,-100.56l67.03 0c55.54,0 100.56,45.02 100.56,100.56l-67.04 0c0,-18.51 -15,-33.52 -33.51,-33.52l-67.04 0c-18.52,0 -33.52,15.01 -33.52,33.52z"/>
  <path class="fil2" d="M0 135.52l270.99 0 0 -0.02 67.75 0c37.42,0 67.75,30.33 67.75,67.74l0 135.51 135.5 0 0 -135.51c0,-112.25 -91,-203.24 -203.25,-203.24l-67.75 0 -270.99 0 0 135.52z"/>
  <path class="fil3" d="M270.99 541.99l-67.75 0c-112.25,0 -203.24,-90.99 -203.24,-203.24l0 -135.51 135.5 0 0 135.51c0,37.41 30.33,67.74 67.74,67.74l67.75 0 0 -0.02 271 0 0 135.52 -271 0z"/>
 </g>
</svg>
